<svg id="kity_svg_6" xmlns="http://www.w3.org/2000/svg" xmlns:xlink="http://www.w3.org/1999/xlink" version="1.1" width="1655" height="1381" style="background: rgb(251, 251, 251); visibility: visible;" viewBox="0 0 1655 1381"><defs id="kity_defs_7"><linearGradient id="kity_linearGradient_17" x1="0" y1="0" x2="0" y2="1"><stop id="kity_stop_18" offset="0" stop-color="rgb(255, 255, 255)"></stop><stop id="kity_stop_19" offset="1" stop-color="rgb(204, 204, 204)"></stop></linearGradient><marker id="kity_marker_2" orient="auto" refX="6" refY="0" viewBox="-7 -7 14 14" markerWidth="7" markerHeight="7" markerUnits="userSpaceOnUse"><path id="kity_path_3" fill="rgb(115, 161, 191)" stroke="none" d="M6,0A6,6,0,1,1,-6,0A6,6,0,1,1,6,0"></path></marker></defs><g id="kity_g_8"><g id="minder1" text-rendering="optimize-speed"><g id="minder_connect_group1"><path id="kity_path_31" fill="none" stroke="rgb(115, 161, 191)" stroke-width="1" d="M76.5,332.5A174,275,0,0,0,250.5,607.5"></path><path id="kity_path_39" fill="none" stroke="rgb(115, 161, 191)" stroke-width="1" d="M381.5,607.5C401.5,607.5,401.5,223.5,421.5,223.5"></path><path id="kity_path_47" fill="none" stroke="rgb(115, 161, 191)" stroke-width="1" d="M381.5,607.5C401.5,607.5,401.5,418.5,421.5,418.5"></path><path id="kity_path_55" fill="none" stroke="rgb(115, 161, 191)" stroke-width="1" d="M381.5,607.5C401.5,607.5,401.5,991.5,421.5,991.5"></path><path id="kity_path_63" fill="none" stroke="rgb(115, 161, 191)" stroke-width="1" d="M76.5,332.5A174,275,0,0,1,250.5,57.5"></path><path id="kity_path_71" fill="none" stroke="rgb(115, 161, 191)" stroke-width="1" d="M371.5,57.5C391.5,57.5,391.5,57.5,411.5,57.5"></path><path id="kity_path_79" fill="none" stroke="rgb(115, 161, 191)" stroke-width="1" d="M611.5,57.5C631.5,57.5,631.5,31.5,651.5,31.5"></path><path id="kity_path_87" fill="none" stroke="rgb(115, 161, 191)" stroke-width="1" d="M611.5,57.5C631.5,57.5,631.5,83.5,651.5,83.5"></path><path id="kity_path_95" fill="none" stroke="rgb(115, 161, 191)" stroke-width="1" d="M856.5,31.5C876.5,31.5,876.5,31.5,896.5,31.5"></path><path id="kity_path_103" fill="none" stroke="rgb(115, 161, 191)" stroke-width="1" d="M846.5,83.5C866.5,83.5,866.5,83.5,886.5,83.5"></path><path id="kity_path_111" fill="none" stroke="rgb(115, 161, 191)" stroke-width="1" d="M541.5,223.5C561.5,223.5,561.5,223.5,581.5,223.5"></path><path id="kity_path_119" fill="none" stroke="rgb(115, 161, 191)" stroke-width="1" d="M789.5,223.5C809.5,223.5,809.5,145.5,829.5,145.5"></path><path id="kity_path_127" fill="none" stroke="rgb(115, 161, 191)" stroke-width="1" d="M789.5,223.5C809.5,223.5,809.5,197.5,829.5,197.5"></path><path id="kity_path_135" fill="none" stroke="rgb(115, 161, 191)" stroke-width="1" d="M789.5,223.5C809.5,223.5,809.5,249.5,829.5,249.5"></path><path id="kity_path_143" fill="none" stroke="rgb(115, 161, 191)" stroke-width="1" d="M924.5,145.5C944.5,145.5,944.5,145.5,964.5,145.5"></path><path id="kity_path_151" fill="none" stroke="rgb(115, 161, 191)" stroke-width="1" d="M932.5,197.5C952.5,197.5,952.5,197.5,972.5,197.5"></path><path id="kity_path_159" fill="none" stroke="rgb(115, 161, 191)" stroke-width="1" d="M938.5,249.5C958.5,249.5,958.5,249.5,978.5,249.5"></path><path id="kity_path_167" fill="none" stroke="rgb(115, 161, 191)" stroke-width="1" d="M789.5,223.5C809.5,223.5,809.5,301.5,829.5,301.5"></path><path id="kity_path_175" fill="none" stroke="rgb(115, 161, 191)" stroke-width="1" d="M948.5,301.5C968.5,301.5,968.5,301.5,988.5,301.5"></path><path id="kity_path_183" fill="none" stroke="rgb(115, 161, 191)" stroke-width="1" d="M597.5,418.5C617.5,418.5,617.5,405.5,637.5,405.5"></path><path id="kity_path_191" fill="none" stroke="rgb(115, 161, 191)" stroke-width="1" d="M597.5,418.5C617.5,418.5,617.5,483.5,637.5,483.5"></path><path id="kity_path_199" fill="none" stroke="rgb(115, 161, 191)" stroke-width="1" d="M597.5,418.5C617.5,418.5,617.5,353.5,637.5,353.5"></path><path id="kity_path_207" fill="none" stroke="rgb(115, 161, 191)" stroke-width="1" d="M691.5,483.5C711.5,483.5,711.5,457.5,731.5,457.5"></path><path id="kity_path_215" fill="none" stroke="rgb(115, 161, 191)" stroke-width="1" d="M691.5,483.5C711.5,483.5,711.5,509.5,731.5,509.5"></path><path id="kity_path_223" fill="none" stroke="rgb(115, 161, 191)" stroke-width="1" d="M898.5,457.5C918.5,457.5,918.5,457.5,938.5,457.5"></path><path id="kity_path_231" fill="none" stroke="rgb(115, 161, 191)" stroke-width="1" d="M543.5,991.5C563.5,991.5,563.5,632.5,583.5,632.5"></path><path id="kity_path_239" fill="none" stroke="rgb(115, 161, 191)" stroke-width="1" d="M637.5,632.5C657.5,632.5,657.5,632.5,677.5,632.5"></path><path id="kity_path_247" fill="none" stroke="rgb(115, 161, 191)" stroke-width="1" d="M764.5,632.5C784.5,632.5,784.5,561.5,804.5,561.5"></path><path id="kity_path_255" fill="none" stroke="rgb(115, 161, 191)" stroke-width="1" d="M764.5,632.5C784.5,632.5,784.5,613.5,804.5,613.5"></path><path id="kity_path_263" fill="none" stroke="rgb(115, 161, 191)" stroke-width="1" d="M764.5,632.5C784.5,632.5,784.5,704.5,804.5,704.5"></path><path id="kity_path_271" fill="none" stroke="rgb(115, 161, 191)" stroke-width="1" d="M896.5,704.5C916.5,704.5,916.5,665.5,936.5,665.5"></path><path id="kity_path_279" fill="none" stroke="rgb(115, 161, 191)" stroke-width="1" d="M896.5,704.5C916.5,704.5,916.5,743.5,936.5,743.5"></path><path id="kity_path_287" fill="none" stroke="rgb(115, 161, 191)" stroke-width="1" d="M1084.5,665.5C1104.5,665.5,1104.5,665.5,1124.5,665.5"></path><path id="kity_path_295" fill="none" stroke="rgb(115, 161, 191)" stroke-width="1" d="M1077.5,743.5C1097.5,743.5,1097.5,743.5,1117.5,743.5"></path><path id="kity_path_303" fill="none" stroke="rgb(115, 161, 191)" stroke-width="1" d="M1161.5,743.5C1181.5,743.5,1181.5,717.5,1201.5,717.5"></path><path id="kity_path_311" fill="none" stroke="rgb(115, 161, 191)" stroke-width="1" d="M1161.5,743.5C1181.5,743.5,1181.5,769.5,1201.5,769.5"></path><path id="kity_path_319" fill="none" stroke="rgb(115, 161, 191)" stroke-width="1" d="M543.5,991.5C563.5,991.5,563.5,911.5,583.5,911.5"></path><path id="kity_path_327" fill="none" stroke="rgb(115, 161, 191)" stroke-width="1" d="M633.5,911.5C653.5,911.5,653.5,911.5,673.5,911.5"></path><path id="kity_path_335" fill="none" stroke="rgb(115, 161, 191)" stroke-width="1" d="M748.5,911.5C768.5,911.5,768.5,911.5,788.5,911.5"></path><path id="kity_path_343" fill="none" stroke="rgb(115, 161, 191)" stroke-width="1" d="M916.5,911.5C936.5,911.5,936.5,846.5,956.5,846.5"></path><path id="kity_path_351" fill="none" stroke="rgb(115, 161, 191)" stroke-width="1" d="M916.5,911.5C936.5,911.5,936.5,976.5,956.5,976.5"></path><path id="kity_path_359" fill="none" stroke="rgb(115, 161, 191)" stroke-width="1" d="M988.5,846.5C1008.5,846.5,1008.5,820.5,1028.5,820.5"></path><path id="kity_path_375" fill="none" stroke="rgb(115, 161, 191)" stroke-width="1" d="M988.5,976.5C1008.5,976.5,1008.5,924.5,1028.5,924.5"></path><path id="kity_path_383" fill="none" stroke="rgb(115, 161, 191)" stroke-width="1" d="M988.5,976.5C1008.5,976.5,1008.5,976.5,1028.5,976.5"></path><path id="kity_path_399" fill="none" stroke="rgb(115, 161, 191)" stroke-width="1" d="M988.5,846.5C1008.5,846.5,1008.5,872.5,1028.5,872.5"></path><path id="kity_path_407" fill="none" stroke="rgb(115, 161, 191)" stroke-width="1" d="M988.5,976.5C1008.5,976.5,1008.5,1028.5,1028.5,1028.5"></path><path id="kity_path_415" fill="none" stroke="rgb(115, 161, 191)" stroke-width="1" d="M543.5,991.5C563.5,991.5,563.5,1153.5,583.5,1153.5"></path><path id="kity_path_423" fill="none" stroke="rgb(115, 161, 191)" stroke-width="1" d="M641.5,1153.5C661.5,1153.5,661.5,1153.5,681.5,1153.5"></path><path id="kity_path_431" fill="none" stroke="rgb(115, 161, 191)" stroke-width="1" d="M756.5,1153.5C776.5,1153.5,776.5,1080.5,796.5,1080.5"></path><path id="kity_path_439" fill="none" stroke="rgb(115, 161, 191)" stroke-width="1" d="M756.5,1153.5C776.5,1153.5,776.5,1132.5,796.5,1132.5"></path><path id="kity_path_447" fill="none" stroke="rgb(115, 161, 191)" stroke-width="1" d="M756.5,1153.5C776.5,1153.5,776.5,1226.5,796.5,1226.5"></path><path id="kity_path_455" fill="none" stroke="rgb(115, 161, 191)" stroke-width="1" d="M888.5,1226.5C908.5,1226.5,908.5,1185.5,928.5,1185.5"></path><path id="kity_path_463" fill="none" stroke="rgb(115, 161, 191)" stroke-width="1" d="M1090.5,1185.5C1110.5,1185.5,1110.5,1185.5,1130.5,1185.5"></path><path id="kity_path_471" fill="none" stroke="rgb(115, 161, 191)" stroke-width="1" d="M888.5,1226.5C908.5,1226.5,908.5,1268.5,928.5,1268.5"></path><path id="kity_path_479" fill="none" stroke="rgb(115, 161, 191)" stroke-width="1" d="M1084.5,1268.5C1104.5,1268.5,1104.5,1268.5,1124.5,1268.5"></path><path id="kity_path_487" fill="none" stroke="rgb(115, 161, 191)" stroke-width="1" d="M1269.5,1268.5C1289.5,1268.5,1289.5,1240,1309.5,1240"></path><path id="kity_path_495" fill="none" stroke="rgb(115, 161, 191)" stroke-width="1" d="M1269.5,1268.5C1289,1268.5,1289,1348,1308.5,1348"></path><path id="kity_path_503" fill="none" stroke="rgb(115, 161, 191)" stroke-width="1" d="M543.5,991.5C563.5,991.5,563.5,1350.5,583.5,1350.5"></path><path id="kity_path_511" fill="none" stroke="rgb(115, 161, 191)" stroke-width="1" d="M647.5,1350.5C667.5,1350.5,667.5,1350.5,687.5,1350.5"></path><path id="kity_path_519" fill="none" stroke="rgb(115, 161, 191)" stroke-width="1" d="M762.5,1350.5C782.5,1350.5,782.5,1350.5,802.5,1350.5"></path></g><g id="minder_node1"><path id="node_outline1" fill="rgb(115, 161, 191)" stroke="rgb(115, 161, 191)" d="M25.5,312.5h102a5,5,0,0,1,5,5v30a5,5,0,0,1,-5,5h-102a5,5,0,0,1,-5,-5v-30a5,5,0,0,1,5,-5z" stroke-width="3"></path><g id="node_text1" fill="white"><text id="kity_text_22" text-rendering="inherit" font-size="16" dy=".8em" y="324.5" x="44.5">新建脑图</text></g></g><g id="kity_g_12" display="none"><path id="kity_path_13" fill="none" stroke="none" d="M44.5,332.5h0v0h0z"></path></g><g id="kity_g_14" display="none"><path id="kity_path_15" fill="none" stroke="none" d="M44.5,332.5h0v0h0z"></path><path id="kity_path_16" fill="none" stroke="none"></path></g><g id="minder_node2"><g id="node_expander1" style="cursor: pointer;"><path id="kity_path_36" fill="white" stroke="gray" d="M251.5,607.5A6,6,0,1,1,239.5,607.5A6,6,0,1,1,251.5,607.5"></path><path id="kity_path_37" fill="none" stroke="gray" d="M241,607.5L250,607.5"></path></g><path id="node_outline2" fill="rgb(238, 243, 246)" stroke="rgb(115, 161, 191)" d="M255.5,594.5h123a3,3,0,0,1,3,3v20a3,3,0,0,1,-3,3h-123a3,3,0,0,1,-3,-3v-20a3,3,0,0,1,3,-3z" stroke-width="1"></path><g id="node_text2" fill="black"><text id="kity_text_33" text-rendering="inherit" font-size="14" dy=".8em" y="600.5" x="272.5">MysqlListener</text></g></g><g id="minder_node3"><g id="node_expander2" style="cursor: pointer;"><path id="kity_path_44" fill="white" stroke="gray" d="M421.5,223.5A6,6,0,1,1,409.5,223.5A6,6,0,1,1,421.5,223.5"></path><path id="kity_path_45" fill="none" stroke="gray" d="M411,223.5L420,223.5"></path></g><path id="node_outline3" fill="none" stroke="none" d="M426.5,212.5h110a5,5,0,0,1,5,5v12a5,5,0,0,1,-5,5h-110a5,5,0,0,1,-5,-5v-12a5,5,0,0,1,5,-5z" stroke-width="3"></path><g id="node_text3" fill="black"><text id="kity_text_41" text-rendering="inherit" font-size="12" dy=".8em" y="217.5" x="431.5">SingleDBExecutor</text></g></g><g id="minder_node4"><g id="node_expander3" style="cursor: pointer;"><path id="kity_path_52" fill="white" stroke="gray" d="M421.5,418.5A6,6,0,1,1,409.5,418.5A6,6,0,1,1,421.5,418.5"></path><path id="kity_path_53" fill="none" stroke="gray" d="M411,418.5L420,418.5"></path></g><path id="node_outline4" fill="none" stroke="none" d="M426.5,407.5h166a5,5,0,0,1,5,5v12a5,5,0,0,1,-5,5h-166a5,5,0,0,1,-5,-5v-12a5,5,0,0,1,5,-5z" stroke-width="3"></path><g id="node_text4" fill="black"><text id="kity_text_49" text-rendering="inherit" font-size="12" dy=".8em" y="412.5" x="431.5">ReadWriteSplittingExecutor</text></g></g><g id="minder_node5"><g id="node_expander4" style="cursor: pointer;"><path id="kity_path_60" fill="white" stroke="gray" d="M421.5,991.5A6,6,0,1,1,409.5,991.5A6,6,0,1,1,421.5,991.5"></path><path id="kity_path_61" fill="none" stroke="gray" d="M411,991.5L420,991.5"></path></g><path id="node_outline5" fill="none" stroke="none" d="M426.5,980.5h112a5,5,0,0,1,5,5v12a5,5,0,0,1,-5,5h-112a5,5,0,0,1,-5,-5v-12a5,5,0,0,1,5,-5z" stroke-width="3"></path><g id="node_text5" fill="black"><text id="kity_text_57" text-rendering="inherit" font-size="12" dy=".8em" y="985.5" x="431.5">ShardingExecutor</text></g></g><g id="minder_node6"><g id="node_expander5" style="cursor: pointer;"><path id="kity_path_68" fill="white" stroke="gray" d="M251.5,57.5A6,6,0,1,1,239.5,57.5A6,6,0,1,1,251.5,57.5"></path><path id="kity_path_69" fill="none" stroke="gray" d="M241,57.5L250,57.5"></path></g><path id="node_outline6" fill="rgb(238, 243, 246)" stroke="rgb(115, 161, 191)" d="M255.5,44.5h113a3,3,0,0,1,3,3v20a3,3,0,0,1,-3,3h-113a3,3,0,0,1,-3,-3v-20a3,3,0,0,1,3,-3z" stroke-width="1"></path><g id="node_text6" fill="black"><text id="kity_text_65" text-rendering="inherit" font-size="14" dy=".8em" y="50.5" x="272.5">HttpListener</text></g></g><g id="minder_node7"><g id="node_expander6" style="cursor: pointer;"><path id="kity_path_76" fill="white" stroke="gray" d="M411.5,57.5A6,6,0,1,1,399.5,57.5A6,6,0,1,1,411.5,57.5"></path><path id="kity_path_77" fill="none" stroke="gray" d="M401,57.5L410,57.5"></path></g><path id="node_outline7" fill="none" stroke="none" d="M416.5,46.5h190a5,5,0,0,1,5,5v12a5,5,0,0,1,-5,5h-190a5,5,0,0,1,-5,-5v-12a5,5,0,0,1,5,-5z" stroke-width="3"></path><g id="node_text7" fill="black"><text id="kity_text_73" text-rendering="inherit" font-size="12" dy=".8em" y="51.5" x="421.5">HttpDistributedTransaction filter</text></g></g><g id="minder_node8"><g id="node_expander7" style="cursor: pointer;"><path id="kity_path_84" fill="white" stroke="gray" d="M651.5,31.5A6,6,0,1,1,639.5,31.5A6,6,0,1,1,651.5,31.5"></path><path id="kity_path_85" fill="none" stroke="gray" d="M641,31.5L650,31.5"></path></g><path id="node_outline8" fill="none" stroke="none" d="M656.5,20.5h195a5,5,0,0,1,5,5v12a5,5,0,0,1,-5,5h-195a5,5,0,0,1,-5,-5v-12a5,5,0,0,1,5,-5z" stroke-width="3"></path><g id="node_text8" fill="black"><text id="kity_text_81" text-rendering="inherit" font-size="12" dy=".8em" y="25.5" x="661.5">请求 url 配置 TransactionInfo 配置</text></g></g><g id="minder_node9"><g id="node_expander8" style="cursor: pointer;"><path id="kity_path_92" fill="white" stroke="gray" d="M651.5,83.5A6,6,0,1,1,639.5,83.5A6,6,0,1,1,651.5,83.5"></path><path id="kity_path_93" fill="none" stroke="gray" d="M641,83.5L650,83.5"></path></g><path id="node_outline9" fill="none" stroke="none" d="M656.5,72.5h185a5,5,0,0,1,5,5v12a5,5,0,0,1,-5,5h-185a5,5,0,0,1,-5,-5v-12a5,5,0,0,1,5,-5z" stroke-width="3"></path><g id="node_text9" fill="black"><text id="kity_text_89" text-rendering="inherit" font-size="12" dy=".8em" y="77.5" x="661.5">请求 url 匹配&#xa0; TccResource 配置</text></g></g><g id="minder_node10"><g id="node_expander9" style="cursor: pointer;" display="none"><path id="kity_path_100" fill="white" stroke="gray" d="M896.5,31.5A6,6,0,1,1,884.5,31.5A6,6,0,1,1,896.5,31.5"></path><path id="kity_path_101" fill="none" stroke="gray"></path></g><path id="node_outline10" fill="none" stroke="none" d="M901.5,20.5h230a5,5,0,0,1,5,5v12a5,5,0,0,1,-5,5h-230a5,5,0,0,1,-5,-5v-12a5,5,0,0,1,5,-5z" stroke-width="3"></path><g id="node_text10" fill="black"><text id="kity_text_97" text-rendering="inherit" font-size="12" dy=".8em" y="25.5" x="906.5">开启全局事务，xid 注入 request header</text></g></g><g id="minder_node11"><g id="node_expander10" style="cursor: pointer;" display="none"><path id="kity_path_108" fill="white" stroke="gray" d="M886.5,83.5A6,6,0,1,1,874.5,83.5A6,6,0,1,1,886.5,83.5"></path><path id="kity_path_109" fill="none" stroke="gray"></path></g><path id="node_outline11" fill="none" stroke="none" d="M891.5,72.5h108a5,5,0,0,1,5,5v12a5,5,0,0,1,-5,5h-108a5,5,0,0,1,-5,-5v-12a5,5,0,0,1,5,-5z" stroke-width="3"></path><g id="node_text11" fill="black"><text id="kity_text_105" text-rendering="inherit" font-size="12" dy=".8em" y="77.5" x="896.5">注册 tcc 事务分支</text></g></g><g id="minder_node12"><g id="node_expander11" style="cursor: pointer;"><path id="kity_path_116" fill="white" stroke="gray" d="M581.5,223.5A6,6,0,1,1,569.5,223.5A6,6,0,1,1,581.5,223.5"></path><path id="kity_path_117" fill="none" stroke="gray" d="M571,223.5L580,223.5"></path></g><path id="node_outline12" fill="none" stroke="none" d="M586.5,212.5h198a5,5,0,0,1,5,5v12a5,5,0,0,1,-5,5h-198a5,5,0,0,1,-5,-5v-12a5,5,0,0,1,5,-5z" stroke-width="3"></path><g id="node_text12" fill="black"><text id="kity_text_113" text-rendering="inherit" font-size="12" dy=".8em" y="217.5" x="591.5">MysqlDistributedTransaction filter</text></g></g><g id="minder_node13"><g id="node_expander12" style="cursor: pointer;"><path id="kity_path_124" fill="white" stroke="gray" d="M829.5,145.5A6,6,0,1,1,817.5,145.5A6,6,0,1,1,829.5,145.5"></path><path id="kity_path_125" fill="none" stroke="gray" d="M819,145.5L828,145.5"></path></g><path id="node_outline13" fill="none" stroke="none" d="M834.5,134.5h85a5,5,0,0,1,5,5v12a5,5,0,0,1,-5,5h-85a5,5,0,0,1,-5,-5v-12a5,5,0,0,1,5,-5z" stroke-width="3"></path><g id="node_text13" fill="black"><text id="kity_text_121" text-rendering="inherit" font-size="12" dy=".8em" y="139.5" x="839.5">insert sql 语句</text></g></g><g id="minder_node14"><g id="node_expander13" style="cursor: pointer;"><path id="kity_path_132" fill="white" stroke="gray" d="M829.5,197.5A6,6,0,1,1,817.5,197.5A6,6,0,1,1,829.5,197.5"></path><path id="kity_path_133" fill="none" stroke="gray" d="M819,197.5L828,197.5"></path></g><path id="node_outline14" fill="none" stroke="none" d="M834.5,186.5h93a5,5,0,0,1,5,5v12a5,5,0,0,1,-5,5h-93a5,5,0,0,1,-5,-5v-12a5,5,0,0,1,5,-5z" stroke-width="3"></path><g id="node_text14" fill="black"><text id="kity_text_129" text-rendering="inherit" font-size="12" dy=".8em" y="191.5" x="839.5">delete sql 语句</text></g></g><g id="minder_node15"><g id="node_expander14" style="cursor: pointer;"><path id="kity_path_140" fill="white" stroke="gray" d="M829.5,249.5A6,6,0,1,1,817.5,249.5A6,6,0,1,1,829.5,249.5"></path><path id="kity_path_141" fill="none" stroke="gray" d="M819,249.5L828,249.5"></path></g><path id="node_outline15" fill="none" stroke="none" d="M834.5,238.5h99a5,5,0,0,1,5,5v12a5,5,0,0,1,-5,5h-99a5,5,0,0,1,-5,-5v-12a5,5,0,0,1,5,-5z" stroke-width="3"></path><g id="node_text15" fill="black"><text id="kity_text_137" text-rendering="inherit" font-size="12" dy=".8em" y="243.5" x="839.5">update sql 语句</text></g></g><g id="minder_node16"><g id="node_expander15" style="cursor: pointer;" display="none"><path id="kity_path_148" fill="white" stroke="gray" d="M964.5,145.5A6,6,0,1,1,952.5,145.5A6,6,0,1,1,964.5,145.5"></path><path id="kity_path_149" fill="none" stroke="gray"></path></g><path id="node_outline16" fill="none" stroke="none" d="M969.5,134.5h185a5,5,0,0,1,5,5v12a5,5,0,0,1,-5,5h-185a5,5,0,0,1,-5,-5v-12a5,5,0,0,1,5,-5z" stroke-width="3"></path><g id="node_text16" fill="black"><text id="kity_text_145" text-rendering="inherit" font-size="12" dy=".8em" y="139.5" x="974.5">后镜像组成 undolog 写入数据库</text></g></g><g id="minder_node17"><g id="node_expander16" style="cursor: pointer;" display="none"><path id="kity_path_156" fill="white" stroke="gray" d="M972.5,197.5A6,6,0,1,1,960.5,197.5A6,6,0,1,1,972.5,197.5"></path><path id="kity_path_157" fill="none" stroke="gray"></path></g><path id="node_outline17" fill="none" stroke="none" d="M977.5,186.5h185a5,5,0,0,1,5,5v12a5,5,0,0,1,-5,5h-185a5,5,0,0,1,-5,-5v-12a5,5,0,0,1,5,-5z" stroke-width="3"></path><g id="node_text17" fill="black"><text id="kity_text_153" text-rendering="inherit" font-size="12" dy=".8em" y="191.5" x="982.5">前镜像组成 undolog 写入数据库</text></g></g><g id="minder_node18"><g id="node_expander17" style="cursor: pointer;" display="none"><path id="kity_path_164" fill="white" stroke="gray" d="M978.5,249.5A6,6,0,1,1,966.5,249.5A6,6,0,1,1,978.5,249.5"></path><path id="kity_path_165" fill="none" stroke="gray"></path></g><path id="node_outline18" fill="none" stroke="none" d="M983.5,238.5h197a5,5,0,0,1,5,5v12a5,5,0,0,1,-5,5h-197a5,5,0,0,1,-5,-5v-12a5,5,0,0,1,5,-5z" stroke-width="3"></path><g id="node_text18" fill="black"><text id="kity_text_161" text-rendering="inherit" font-size="12" dy=".8em" y="243.5" x="988.5">前后镜像组成 undolog 写入数据库</text></g></g><g id="minder_node19"><g id="node_expander18" style="cursor: pointer;"><path id="kity_path_172" fill="white" stroke="gray" d="M829.5,301.5A6,6,0,1,1,817.5,301.5A6,6,0,1,1,829.5,301.5"></path><path id="kity_path_173" fill="none" stroke="gray" d="M819,301.5L828,301.5"></path></g><path id="node_outline19" fill="none" stroke="none" d="M834.5,290.5h109a5,5,0,0,1,5,5v12a5,5,0,0,1,-5,5h-109a5,5,0,0,1,-5,-5v-12a5,5,0,0,1,5,-5z" stroke-width="3"></path><g id="node_text19" fill="black"><text id="kity_text_169" text-rendering="inherit" font-size="12" dy=".8em" y="295.5" x="839.5">select for update</text></g></g><g id="minder_node20"><g id="node_expander19" style="cursor: pointer;" display="none"><path id="kity_path_180" fill="white" stroke="gray" d="M988.5,301.5A6,6,0,1,1,976.5,301.5A6,6,0,1,1,988.5,301.5"></path><path id="kity_path_181" fill="none" stroke="gray"></path></g><path id="node_outline20" fill="none" stroke="none" d="M993.5,290.5h190a5,5,0,0,1,5,5v12a5,5,0,0,1,-5,5h-190a5,5,0,0,1,-5,-5v-12a5,5,0,0,1,5,-5z" stroke-width="3"></path><g id="node_text20" fill="black"><text id="kity_text_177" text-rendering="inherit" font-size="12" dy=".8em" y="295.5" x="998.5">判断查询的数据是否被全局锁锁住</text></g></g><g id="minder_node21"><g id="node_expander20" style="cursor: pointer;" display="none"><path id="kity_path_188" fill="white" stroke="gray" d="M637.5,405.5A6,6,0,1,1,625.5,405.5A6,6,0,1,1,637.5,405.5"></path><path id="kity_path_189" fill="none" stroke="gray"></path></g><path id="node_outline21" fill="none" stroke="none" d="M642.5,394.5h197a5,5,0,0,1,5,5v12a5,5,0,0,1,-5,5h-197a5,5,0,0,1,-5,-5v-12a5,5,0,0,1,5,-5z" stroke-width="3"></path><g id="node_text21" fill="black"><text id="kity_text_185" text-rendering="inherit" font-size="12" dy=".8em" y="399.5" x="647.5">insert、update、delete 写库执行</text></g></g><g id="minder_node22"><g id="node_expander21" style="cursor: pointer;"><path id="kity_path_196" fill="white" stroke="gray" d="M637.5,483.5A6,6,0,1,1,625.5,483.5A6,6,0,1,1,637.5,483.5"></path><path id="kity_path_197" fill="none" stroke="gray" d="M627,483.5L636,483.5"></path></g><path id="node_outline22" fill="none" stroke="none" d="M642.5,472.5h44a5,5,0,0,1,5,5v12a5,5,0,0,1,-5,5h-44a5,5,0,0,1,-5,-5v-12a5,5,0,0,1,5,-5z" stroke-width="3"></path><g id="node_text22" fill="black"><text id="kity_text_193" text-rendering="inherit" font-size="12" dy=".8em" y="477.5" x="647.5">select</text></g></g><g id="minder_node23"><g id="node_expander22" style="cursor: pointer;" display="none"><path id="kity_path_204" fill="white" stroke="gray" d="M637.5,353.5A6,6,0,1,1,625.5,353.5A6,6,0,1,1,637.5,353.5"></path><path id="kity_path_205" fill="none" stroke="gray"></path></g><path id="node_outline23" fill="none" stroke="none" d="M642.5,342.5h202a5,5,0,0,1,5,5v12a5,5,0,0,1,-5,5h-202a5,5,0,0,1,-5,-5v-12a5,5,0,0,1,5,-5z" stroke-width="3"></path><g id="node_text23" fill="black"><text id="kity_text_201" text-rendering="inherit" font-size="12" dy=".8em" y="347.5" x="647.5">如果开启事务，所有请求路由到写库</text></g></g><g id="minder_node24"><g id="node_expander23" style="cursor: pointer;"><path id="kity_path_212" fill="white" stroke="gray" d="M731.5,457.5A6,6,0,1,1,719.5,457.5A6,6,0,1,1,731.5,457.5"></path><path id="kity_path_213" fill="none" stroke="gray" d="M721,457.5L730,457.5"></path></g><path id="node_outline24" fill="none" stroke="none" d="M736.5,446.5h157a5,5,0,0,1,5,5v12a5,5,0,0,1,-5,5h-157a5,5,0,0,1,-5,-5v-12a5,5,0,0,1,5,-5z" stroke-width="3"></path><g id="node_text24" fill="black"><text id="kity_text_209" text-rendering="inherit" font-size="12" dy=".8em" y="451.5" x="741.5">如果 sql 上存在 UseDB 标记</text></g></g><g id="minder_node25"><g id="node_expander24" style="cursor: pointer;" display="none"><path id="kity_path_220" fill="white" stroke="gray" d="M731.5,509.5A6,6,0,1,1,719.5,509.5A6,6,0,1,1,731.5,509.5"></path><path id="kity_path_221" fill="none" stroke="gray"></path></g><path id="node_outline25" fill="none" stroke="none" d="M736.5,498.5h154a5,5,0,0,1,5,5v12a5,5,0,0,1,-5,5h-154a5,5,0,0,1,-5,-5v-12a5,5,0,0,1,5,-5z" stroke-width="3"></path><g id="node_text25" fill="black"><text id="kity_text_217" text-rendering="inherit" font-size="12" dy=".8em" y="503.5" x="741.5">根据随机算法选择读库执行</text></g></g><g id="minder_node26"><g id="node_expander25" style="cursor: pointer;" display="none"><path id="kity_path_228" fill="white" stroke="gray" d="M938.5,457.5A6,6,0,1,1,926.5,457.5A6,6,0,1,1,938.5,457.5"></path><path id="kity_path_229" fill="none" stroke="gray"></path></g><path id="node_outline26" fill="none" stroke="none" d="M943.5,446.5h92a5,5,0,0,1,5,5v12a5,5,0,0,1,-5,5h-92a5,5,0,0,1,-5,-5v-12a5,5,0,0,1,5,-5z" stroke-width="3"></path><g id="node_text26" fill="black"><text id="kity_text_225" text-rendering="inherit" font-size="12" dy=".8em" y="451.5" x="948.5">指定 DB 上执行</text></g></g><g id="minder_node27"><g id="node_expander26" style="cursor: pointer;"><path id="kity_path_236" fill="white" stroke="gray" d="M583.5,632.5A6,6,0,1,1,571.5,632.5A6,6,0,1,1,583.5,632.5"></path><path id="kity_path_237" fill="none" stroke="gray" d="M573,632.5L582,632.5"></path></g><path id="node_outline27" fill="none" stroke="none" d="M588.5,621.5h44a5,5,0,0,1,5,5v12a5,5,0,0,1,-5,5h-44a5,5,0,0,1,-5,-5v-12a5,5,0,0,1,5,-5z" stroke-width="3"></path><g id="node_text27" fill="black"><text id="kity_text_233" text-rendering="inherit" font-size="12" dy=".8em" y="626.5" x="593.5">select</text></g></g><g id="minder_node28"><g id="node_expander27" style="cursor: pointer;"><path id="kity_path_244" fill="white" stroke="gray" d="M677.5,632.5A6,6,0,1,1,665.5,632.5A6,6,0,1,1,677.5,632.5"></path><path id="kity_path_245" fill="none" stroke="gray" d="M667,632.5L676,632.5"></path></g><path id="node_outline28" fill="none" stroke="none" d="M682.5,621.5h77a5,5,0,0,1,5,5v12a5,5,0,0,1,-5,5h-77a5,5,0,0,1,-5,-5v-12a5,5,0,0,1,5,-5z" stroke-width="3"></path><g id="node_text28" fill="black"><text id="kity_text_241" text-rendering="inherit" font-size="12" dy=".8em" y="626.5" x="687.5">Opertimizer</text></g></g><g id="minder_node29"><g id="node_expander28" style="cursor: pointer;" display="none"><path id="kity_path_252" fill="white" stroke="gray" d="M804.5,561.5A6,6,0,1,1,792.5,561.5A6,6,0,1,1,804.5,561.5"></path><path id="kity_path_253" fill="none" stroke="gray"></path></g><path id="node_outline29" fill="none" stroke="none" d="M809.5,550.5h150a5,5,0,0,1,5,5v12a5,5,0,0,1,-5,5h-150a5,5,0,0,1,-5,-5v-12a5,5,0,0,1,5,-5z" stroke-width="3"></path><g id="node_text29" fill="black"><text id="kity_text_249" text-rendering="inherit" font-size="12" dy=".8em" y="555.5" x="814.5">ParseCondition 逻辑运算</text></g></g><g id="minder_node30"><g id="node_expander29" style="cursor: pointer;" display="none"><path id="kity_path_260" fill="white" stroke="gray" d="M804.5,613.5A6,6,0,1,1,792.5,613.5A6,6,0,1,1,804.5,613.5"></path><path id="kity_path_261" fill="none" stroke="gray"></path></g><path id="node_outline30" fill="none" stroke="none" d="M809.5,602.5h96a5,5,0,0,1,5,5v12a5,5,0,0,1,-5,5h-96a5,5,0,0,1,-5,-5v-12a5,5,0,0,1,5,-5z" stroke-width="3"></path><g id="node_text30" fill="black"><text id="kity_text_257" text-rendering="inherit" font-size="12" dy=".8em" y="607.5" x="814.5">计算 shard 分片</text></g></g><g id="minder_node31"><g id="node_expander30" style="cursor: pointer;"><path id="kity_path_268" fill="white" stroke="gray" d="M804.5,704.5A6,6,0,1,1,792.5,704.5A6,6,0,1,1,804.5,704.5"></path><path id="kity_path_269" fill="none" stroke="gray" d="M794,704.5L803,704.5"></path></g><path id="node_outline31" fill="none" stroke="none" d="M809.5,693.5h82a5,5,0,0,1,5,5v12a5,5,0,0,1,-5,5h-82a5,5,0,0,1,-5,-5v-12a5,5,0,0,1,5,-5z" stroke-width="3"></path><g id="node_text31" fill="black"><text id="kity_text_265" text-rendering="inherit" font-size="12" dy=".8em" y="698.5" x="814.5">生成执行计划</text></g></g><g id="minder_node32"><g id="node_expander31" style="cursor: pointer;"><path id="kity_path_276" fill="white" stroke="gray" d="M936.5,665.5A6,6,0,1,1,924.5,665.5A6,6,0,1,1,936.5,665.5"></path><path id="kity_path_277" fill="none" stroke="gray" d="M926,665.5L935,665.5"></path></g><path id="node_outline32" fill="none" stroke="none" d="M941.5,654.5h138a5,5,0,0,1,5,5v12a5,5,0,0,1,-5,5h-138a5,5,0,0,1,-5,-5v-12a5,5,0,0,1,5,-5z" stroke-width="3"></path><g id="node_text32" fill="black"><text id="kity_text_273" text-rendering="inherit" font-size="12" dy=".8em" y="659.5" x="946.5">QueryOnSingleDBPlan</text></g></g><g id="minder_node33"><g id="node_expander32" style="cursor: pointer;"><path id="kity_path_284" fill="white" stroke="gray" d="M936.5,743.5A6,6,0,1,1,924.5,743.5A6,6,0,1,1,936.5,743.5"></path><path id="kity_path_285" fill="none" stroke="gray" d="M926,743.5L935,743.5"></path></g><path id="node_outline33" fill="none" stroke="none" d="M941.5,732.5h131a5,5,0,0,1,5,5v12a5,5,0,0,1,-5,5h-131a5,5,0,0,1,-5,-5v-12a5,5,0,0,1,5,-5z" stroke-width="3"></path><g id="node_text33" fill="black"><text id="kity_text_281" text-rendering="inherit" font-size="12" dy=".8em" y="737.5" x="946.5">QueryOnMultiDBPlan</text></g></g><g id="minder_node34"><g id="node_expander33" style="cursor: pointer;" display="none"><path id="kity_path_292" fill="white" stroke="gray" d="M1124.5,665.5A6,6,0,1,1,1112.5,665.5A6,6,0,1,1,1124.5,665.5"></path><path id="kity_path_293" fill="none" stroke="gray"></path></g><path id="node_outline34" fill="none" stroke="none" d="M1129.5,654.5h112a5,5,0,0,1,5,5v12a5,5,0,0,1,-5,5h-112a5,5,0,0,1,-5,-5v-12a5,5,0,0,1,5,-5z" stroke-width="3"></path><g id="node_text34" fill="black"><text id="kity_text_289" text-rendering="inherit" font-size="12" dy=".8em" y="659.5" x="1134.5">跨表 union all 查询</text></g></g><g id="minder_node35"><g id="node_expander34" style="cursor: pointer;"><path id="kity_path_300" fill="white" stroke="gray" d="M1117.5,743.5A6,6,0,1,1,1105.5,743.5A6,6,0,1,1,1117.5,743.5"></path><path id="kity_path_301" fill="none" stroke="gray" d="M1107,743.5L1116,743.5"></path></g><path id="node_outline35" fill="none" stroke="none" d="M1122.5,732.5h34a5,5,0,0,1,5,5v12a5,5,0,0,1,-5,5h-34a5,5,0,0,1,-5,-5v-12a5,5,0,0,1,5,-5z" stroke-width="3"></path><g id="node_text35" fill="black"><text id="kity_text_297" text-rendering="inherit" font-size="12" dy=".8em" y="737.5" x="1127.5">跨库</text></g></g><g id="minder_node36"><g id="node_expander35" style="cursor: pointer;" display="none"><path id="kity_path_308" fill="white" stroke="gray" d="M1201.5,717.5A6,6,0,1,1,1189.5,717.5A6,6,0,1,1,1201.5,717.5"></path><path id="kity_path_309" fill="none" stroke="gray"></path></g><path id="node_outline36" fill="none" stroke="none" d="M1206.5,706.5h176a5,5,0,0,1,5,5v12a5,5,0,0,1,-5,5h-176a5,5,0,0,1,-5,-5v-12a5,5,0,0,1,5,-5z" stroke-width="3"></path><g id="node_text36" fill="black"><text id="kity_text_305" text-rendering="inherit" font-size="12" dy=".8em" y="711.5" x="1211.5">在需要执行的 DB 执行查询语句</text></g></g><g id="minder_node37"><g id="node_expander36" style="cursor: pointer;" display="none"><path id="kity_path_316" fill="white" stroke="gray" d="M1201.5,769.5A6,6,0,1,1,1189.5,769.5A6,6,0,1,1,1201.5,769.5"></path><path id="kity_path_317" fill="none" stroke="gray"></path></g><path id="node_outline37" fill="none" stroke="none" d="M1206.5,758.5h58a5,5,0,0,1,5,5v12a5,5,0,0,1,-5,5h-58a5,5,0,0,1,-5,-5v-12a5,5,0,0,1,5,-5z" stroke-width="3"></path><g id="node_text37" fill="black"><text id="kity_text_313" text-rendering="inherit" font-size="12" dy=".8em" y="763.5" x="1211.5">结果归并</text></g></g><g id="minder_node38"><g id="node_expander37" style="cursor: pointer;"><path id="kity_path_324" fill="white" stroke="gray" d="M583.5,911.5A6,6,0,1,1,571.5,911.5A6,6,0,1,1,583.5,911.5"></path><path id="kity_path_325" fill="none" stroke="gray" d="M573,911.5L582,911.5"></path></g><path id="node_outline38" fill="none" stroke="none" d="M588.5,900.5h40a5,5,0,0,1,5,5v12a5,5,0,0,1,-5,5h-40a5,5,0,0,1,-5,-5v-12a5,5,0,0,1,5,-5z" stroke-width="3"></path><g id="node_text38" fill="black"><text id="kity_text_321" text-rendering="inherit" font-size="12" dy=".8em" y="905.5" x="593.5">insert</text></g></g><g id="minder_node39"><g id="node_expander38" style="cursor: pointer;"><path id="kity_path_332" fill="white" stroke="gray" d="M673.5,911.5A6,6,0,1,1,661.5,911.5A6,6,0,1,1,673.5,911.5"></path><path id="kity_path_333" fill="none" stroke="gray" d="M663,911.5L672,911.5"></path></g><path id="node_outline39" fill="none" stroke="none" d="M678.5,900.5h65a5,5,0,0,1,5,5v12a5,5,0,0,1,-5,5h-65a5,5,0,0,1,-5,-5v-12a5,5,0,0,1,5,-5z" stroke-width="3"></path><g id="node_text39" fill="black"><text id="kity_text_329" text-rendering="inherit" font-size="12" dy=".8em" y="905.5" x="683.5">Optimizer</text></g></g><g id="minder_node40"><g id="node_expander39" style="cursor: pointer;"><path id="kity_path_340" fill="white" stroke="gray" d="M788.5,911.5A6,6,0,1,1,776.5,911.5A6,6,0,1,1,788.5,911.5"></path><path id="kity_path_341" fill="none" stroke="gray" d="M778,911.5L787,911.5"></path></g><path id="node_outline40" fill="none" stroke="none" d="M793.5,900.5h118a5,5,0,0,1,5,5v12a5,5,0,0,1,-5,5h-118a5,5,0,0,1,-5,-5v-12a5,5,0,0,1,5,-5z" stroke-width="3"></path><g id="node_text40" fill="black"><text id="kity_text_337" text-rendering="inherit" font-size="12" dy=".8em" y="905.5" x="798.5">插入值是否存在主键</text></g></g><g id="minder_node41"><g id="node_expander40" style="cursor: pointer;"><path id="kity_path_348" fill="white" stroke="gray" d="M956.5,846.5A6,6,0,1,1,944.5,846.5A6,6,0,1,1,956.5,846.5"></path><path id="kity_path_349" fill="none" stroke="gray" d="M946,846.5L955,846.5"></path></g><path id="node_outline41" fill="none" stroke="none" d="M961.5,835.5h22a5,5,0,0,1,5,5v12a5,5,0,0,1,-5,5h-22a5,5,0,0,1,-5,-5v-12a5,5,0,0,1,5,-5z" stroke-width="3"></path><g id="node_text41" fill="black"><text id="kity_text_345" text-rendering="inherit" font-size="12" dy=".8em" y="840.5" x="966.5">是</text></g></g><g id="minder_node42"><g id="node_expander41" style="cursor: pointer;"><path id="kity_path_356" fill="white" stroke="gray" d="M956.5,976.5A6,6,0,1,1,944.5,976.5A6,6,0,1,1,956.5,976.5"></path><path id="kity_path_357" fill="none" stroke="gray" d="M946,976.5L955,976.5"></path></g><path id="node_outline42" fill="none" stroke="none" d="M961.5,965.5h22a5,5,0,0,1,5,5v12a5,5,0,0,1,-5,5h-22a5,5,0,0,1,-5,-5v-12a5,5,0,0,1,5,-5z" stroke-width="3"></path><g id="node_text42" fill="black"><text id="kity_text_353" text-rendering="inherit" font-size="12" dy=".8em" y="970.5" x="966.5">否</text></g></g><g id="minder_node43"><g id="node_expander42" style="cursor: pointer;" display="none"><path id="kity_path_364" fill="white" stroke="gray" d="M1028.5,820.5A6,6,0,1,1,1016.5,820.5A6,6,0,1,1,1028.5,820.5"></path><path id="kity_path_365" fill="none" stroke="gray" d="M1018,820.5L1027,820.5"></path></g><path id="node_outline43" fill="none" stroke="none" d="M1033.5,809.5h82a5,5,0,0,1,5,5v12a5,5,0,0,1,-5,5h-82a5,5,0,0,1,-5,-5v-12a5,5,0,0,1,5,-5z" stroke-width="3"></path><g id="node_text43" fill="black"><text id="kity_text_361" text-rendering="inherit" font-size="12" dy=".8em" y="814.5" x="1038.5">计算主键分片</text></g></g><g id="minder_node45"><g id="node_expander44" style="cursor: pointer;" display="none"><path id="kity_path_380" fill="white" stroke="gray" d="M1028.5,924.5A6,6,0,1,1,1016.5,924.5A6,6,0,1,1,1028.5,924.5"></path><path id="kity_path_381" fill="none" stroke="gray"></path></g><path id="node_outline45" fill="none" stroke="none" d="M1033.5,913.5h58a5,5,0,0,1,5,5v12a5,5,0,0,1,-5,5h-58a5,5,0,0,1,-5,-5v-12a5,5,0,0,1,5,-5z" stroke-width="3"></path><g id="node_text45" fill="black"><text id="kity_text_377" text-rendering="inherit" font-size="12" dy=".8em" y="918.5" x="1038.5">生成主键</text></g></g><g id="minder_node46"><g id="node_expander45" style="cursor: pointer;" display="none"><path id="kity_path_388" fill="white" stroke="gray" d="M1028.5,976.5A6,6,0,1,1,1016.5,976.5A6,6,0,1,1,1028.5,976.5"></path><path id="kity_path_389" fill="none" stroke="gray" d="M1018,976.5L1027,976.5"></path></g><path id="node_outline46" fill="none" stroke="none" d="M1033.5,965.5h82a5,5,0,0,1,5,5v12a5,5,0,0,1,-5,5h-82a5,5,0,0,1,-5,-5v-12a5,5,0,0,1,5,-5z" stroke-width="3"></path><g id="node_text46" fill="black"><text id="kity_text_385" text-rendering="inherit" font-size="12" dy=".8em" y="970.5" x="1038.5">计算主键分片</text></g></g><g id="minder_node48"><g id="node_expander47" style="cursor: pointer;" display="none"><path id="kity_path_404" fill="white" stroke="gray" d="M1028.5,872.5A6,6,0,1,1,1016.5,872.5A6,6,0,1,1,1028.5,872.5"></path><path id="kity_path_405" fill="none" stroke="gray"></path></g><path id="node_outline48" fill="none" stroke="none" d="M1033.5,861.5h34a5,5,0,0,1,5,5v12a5,5,0,0,1,-5,5h-34a5,5,0,0,1,-5,-5v-12a5,5,0,0,1,5,-5z" stroke-width="3"></path><g id="node_text48" fill="black"><text id="kity_text_401" text-rendering="inherit" font-size="12" dy=".8em" y="866.5" x="1038.5">插入</text></g></g><g id="minder_node49"><g id="node_expander48" style="cursor: pointer;" display="none"><path id="kity_path_412" fill="white" stroke="gray" d="M1028.5,1028.5A6,6,0,1,1,1016.5,1028.5A6,6,0,1,1,1028.5,1028.5"></path><path id="kity_path_413" fill="none" stroke="gray"></path></g><path id="node_outline49" fill="none" stroke="none" d="M1033.5,1017.5h34a5,5,0,0,1,5,5v12a5,5,0,0,1,-5,5h-34a5,5,0,0,1,-5,-5v-12a5,5,0,0,1,5,-5z" stroke-width="3"></path><g id="node_text49" fill="black"><text id="kity_text_409" text-rendering="inherit" font-size="12" dy=".8em" y="1022.5" x="1038.5">插入</text></g></g><g id="minder_node50"><g id="node_expander49" style="cursor: pointer;"><path id="kity_path_420" fill="white" stroke="gray" d="M583.5,1153.5A6,6,0,1,1,571.5,1153.5A6,6,0,1,1,583.5,1153.5"></path><path id="kity_path_421" fill="none" stroke="gray" d="M573,1153.5L582,1153.5"></path></g><path id="node_outline50" fill="none" stroke="none" d="M588.5,1142.5h48a5,5,0,0,1,5,5v12a5,5,0,0,1,-5,5h-48a5,5,0,0,1,-5,-5v-12a5,5,0,0,1,5,-5z" stroke-width="3"></path><g id="node_text50" fill="black"><text id="kity_text_417" text-rendering="inherit" font-size="12" dy=".8em" y="1147.5" x="593.5">delete</text></g></g><g id="minder_node51"><g id="node_expander50" style="cursor: pointer;"><path id="kity_path_428" fill="white" stroke="gray" d="M681.5,1153.5A6,6,0,1,1,669.5,1153.5A6,6,0,1,1,681.5,1153.5"></path><path id="kity_path_429" fill="none" stroke="gray" d="M671,1153.5L680,1153.5"></path></g><path id="node_outline51" fill="none" stroke="none" d="M686.5,1142.5h65a5,5,0,0,1,5,5v12a5,5,0,0,1,-5,5h-65a5,5,0,0,1,-5,-5v-12a5,5,0,0,1,5,-5z" stroke-width="3"></path><g id="node_text51" fill="black"><text id="kity_text_425" text-rendering="inherit" font-size="12" dy=".8em" y="1147.5" x="691.5">Optimizer</text></g></g><g id="minder_node52"><g id="node_expander51" style="cursor: pointer;" display="none"><path id="kity_path_436" fill="white" stroke="gray" d="M796.5,1080.5A6,6,0,1,1,784.5,1080.5A6,6,0,1,1,796.5,1080.5"></path><path id="kity_path_437" fill="none" stroke="gray"></path></g><path id="node_outline52" fill="none" stroke="none" d="M801.5,1069.5h150a5,5,0,0,1,5,5v12a5,5,0,0,1,-5,5h-150a5,5,0,0,1,-5,-5v-12a5,5,0,0,1,5,-5z" stroke-width="3"></path><g id="node_text52" fill="black"><text id="kity_text_433" text-rendering="inherit" font-size="12" dy=".8em" y="1074.5" x="806.5">ParseCondition 逻辑运算</text></g></g><g id="minder_node53"><g id="node_expander52" style="cursor: pointer;" display="none"><path id="kity_path_444" fill="white" stroke="gray" d="M796.5,1132.5A6,6,0,1,1,784.5,1132.5A6,6,0,1,1,796.5,1132.5"></path><path id="kity_path_445" fill="none" stroke="gray"></path></g><path id="node_outline53" fill="none" stroke="none" d="M801.5,1121.5h96a5,5,0,0,1,5,5v12a5,5,0,0,1,-5,5h-96a5,5,0,0,1,-5,-5v-12a5,5,0,0,1,5,-5z" stroke-width="3"></path><g id="node_text53" fill="black"><text id="kity_text_441" text-rendering="inherit" font-size="12" dy=".8em" y="1126.5" x="806.5">计算 shard 分片</text></g></g><g id="minder_node54"><g id="node_expander53" style="cursor: pointer;"><path id="kity_path_452" fill="white" stroke="gray" d="M796.5,1226.5A6,6,0,1,1,784.5,1226.5A6,6,0,1,1,796.5,1226.5"></path><path id="kity_path_453" fill="none" stroke="gray" d="M786,1226.5L795,1226.5"></path></g><path id="node_outline54" fill="none" stroke="none" d="M801.5,1215.5h82a5,5,0,0,1,5,5v12a5,5,0,0,1,-5,5h-82a5,5,0,0,1,-5,-5v-12a5,5,0,0,1,5,-5z" stroke-width="3"></path><g id="node_text54" fill="black"><text id="kity_text_449" text-rendering="inherit" font-size="12" dy=".8em" y="1220.5" x="806.5">生成执行计划</text></g></g><g id="minder_node55"><g id="node_expander54" style="cursor: pointer;"><path id="kity_path_460" fill="white" stroke="gray" d="M928.5,1185.5A6,6,0,1,1,916.5,1185.5A6,6,0,1,1,928.5,1185.5"></path><path id="kity_path_461" fill="none" stroke="gray" d="M918,1185.5L927,1185.5"></path></g><path id="node_outline55" fill="none" stroke="none" d="M933.5,1174.5h152a5,5,0,0,1,5,5v12a5,5,0,0,1,-5,5h-152a5,5,0,0,1,-5,-5v-12a5,5,0,0,1,5,-5z" stroke-width="3"></path><g id="node_text55" fill="black"><text id="kity_text_457" text-rendering="inherit" font-size="12" dy=".8em" y="1179.5" x="938.5">DeleteAtSingleTablePlan</text></g></g><g id="minder_node56"><g id="node_expander55" style="cursor: pointer;" display="none"><path id="kity_path_468" fill="white" stroke="gray" d="M1130.5,1185.5A6,6,0,1,1,1118.5,1185.5A6,6,0,1,1,1130.5,1185.5"></path><path id="kity_path_469" fill="none" stroke="gray"></path></g><path id="node_outline56" fill="none" stroke="none" d="M1135.5,1174.5h82a5,5,0,0,1,5,5v12a5,5,0,0,1,-5,5h-82a5,5,0,0,1,-5,-5v-12a5,5,0,0,1,5,-5z" stroke-width="3"></path><g id="node_text56" fill="black"><text id="kity_text_465" text-rendering="inherit" font-size="12" dy=".8em" y="1179.5" x="1140.5">单表直接删除</text></g></g><g id="minder_node57"><g id="node_expander56" style="cursor: pointer;"><path id="kity_path_476" fill="white" stroke="gray" d="M928.5,1268.5A6,6,0,1,1,916.5,1268.5A6,6,0,1,1,928.5,1268.5"></path><path id="kity_path_477" fill="none" stroke="gray" d="M918,1268.5L927,1268.5"></path></g><path id="node_outline57" fill="none" stroke="none" d="M933.5,1257.5h146a5,5,0,0,1,5,5v12a5,5,0,0,1,-5,5h-146a5,5,0,0,1,-5,-5v-12a5,5,0,0,1,5,-5z" stroke-width="3"></path><g id="node_text57" fill="black"><text id="kity_text_473" text-rendering="inherit" font-size="12" dy=".8em" y="1262.5" x="938.5">DeleteAtMultiTablePlan</text></g></g><g id="minder_node58"><g id="node_expander57" style="cursor: pointer;"><path id="kity_path_484" fill="white" stroke="gray" d="M1124.5,1268.5A6,6,0,1,1,1112.5,1268.5A6,6,0,1,1,1124.5,1268.5"></path><path id="kity_path_485" fill="none" stroke="gray" d="M1114,1268.5L1123,1268.5"></path></g><path id="node_outline58" fill="none" stroke="none" d="M1129.5,1257.5h135a5,5,0,0,1,5,5v12a5,5,0,0,1,-5,5h-135a5,5,0,0,1,-5,-5v-12a5,5,0,0,1,5,-5z" stroke-width="3"></path><g id="node_text58" fill="black"><text id="kity_text_481" text-rendering="inherit" font-size="12" dy=".8em" y="1262.5" x="1134.5">sql 上是否存在 xid 标识</text></g></g><g id="minder_node59"><g id="node_expander58" style="cursor: pointer;" display="none"><path id="kity_path_492" fill="white" stroke="gray" d="M1309.5,1240A6,6,0,1,1,1297.5,1240A6,6,0,1,1,1309.5,1240"></path><path id="kity_path_493" fill="none" stroke="gray"></path></g><path id="node_outline59" fill="none" stroke="none" d="M1314.5,1226.5h175a5,5,0,0,1,5,5v17a5,5,0,0,1,-5,5h-175a5,5,0,0,1,-5,-5v-17a5,5,0,0,1,5,-5z" stroke-width="3"></path><g id="node_text59" fill="black"><text id="kity_text_489" text-rendering="inherit" font-size="12" dy=".8em" y="1233.5" x="1319.5">存在则分别在每张表上执行</text></g><g id="kity_g_526" style="cursor: pointer;"><path id="kity_path_527" fill="none" stroke="none" d="M1471,1231h12a2,2,0,0,1,2,2v13a2,2,0,0,1,-2,2h-12a2,2,0,0,1,-2,-2v-13a2,2,0,0,1,2,-2z"></path><path id="kity_path_528" fill="black" stroke="none" d="M1480,1242H1474V1241h6L1480,1242L1480,1242zM1480,1240H1474V1239h6V1240zM1480,1238H1474V1237h6V1238zM1479.5,1244H1473V1235h8v7.5M1480,1245l2,-2V1234H1472v11"></path></g></g><g id="minder_node60" opacity="1"><g id="node_expander59" style="cursor: pointer;" display="none"><path id="kity_path_500" fill="white" stroke="gray" d="M1308.5,1348A6,6,0,1,1,1296.5,1348A6,6,0,1,1,1308.5,1348"></path><path id="kity_path_501" fill="none" stroke="gray"></path></g><path id="node_outline60" fill="none" stroke="none" d="M1313.5,1334.5h317a5,5,0,0,1,5,5v17a5,5,0,0,1,-5,5h-317a5,5,0,0,1,-5,-5v-17a5,5,0,0,1,5,-5z" stroke-width="3"></path><g id="node_text60" fill="black"><text id="kity_text_497" text-rendering="inherit" font-size="12" dy=".8em" y="1341.5" x="1318.5">不存在，则开启全局事务，取得 xid， 再在每张表执行</text></g><g id="kity_g_529" style="cursor: pointer;"><path id="kity_path_530" fill="none" stroke="none" d="M1612,1339h12a2,2,0,0,1,2,2v13a2,2,0,0,1,-2,2h-12a2,2,0,0,1,-2,-2v-13a2,2,0,0,1,2,-2z"></path><path id="kity_path_531" fill="black" stroke="none" d="M1621,1350H1615V1349h6L1621,1350L1621,1350zM1621,1348H1615V1347h6V1348zM1621,1346H1615V1345h6V1346zM1620.5,1352H1614V1343h8v7.5M1621,1353l2,-2V1342H1613v11"></path></g></g><g id="minder_node61"><g id="node_expander60" style="cursor: pointer;"><path id="kity_path_508" fill="white" stroke="gray" d="M583.5,1350.5A6,6,0,1,1,571.5,1350.5A6,6,0,1,1,583.5,1350.5"></path><path id="kity_path_509" fill="none" stroke="gray" d="M573,1350.5L582,1350.5"></path></g><path id="node_outline61" fill="none" stroke="none" d="M588.5,1339.5h54a5,5,0,0,1,5,5v12a5,5,0,0,1,-5,5h-54a5,5,0,0,1,-5,-5v-12a5,5,0,0,1,5,-5z" stroke-width="3"></path><g id="node_text61" fill="black"><text id="kity_text_505" text-rendering="inherit" font-size="12" dy=".8em" y="1344.5" x="593.5">update</text></g></g><g id="minder_node62"><g id="node_expander61" style="cursor: pointer;"><path id="kity_path_516" fill="white" stroke="gray" d="M687.5,1350.5A6,6,0,1,1,675.5,1350.5A6,6,0,1,1,687.5,1350.5"></path><path id="kity_path_517" fill="none" stroke="gray" d="M677,1350.5L686,1350.5"></path></g><path id="node_outline62" fill="none" stroke="none" d="M692.5,1339.5h65a5,5,0,0,1,5,5v12a5,5,0,0,1,-5,5h-65a5,5,0,0,1,-5,-5v-12a5,5,0,0,1,5,-5z" stroke-width="3"></path><g id="node_text62" fill="black"><text id="kity_text_513" text-rendering="inherit" font-size="12" dy=".8em" y="1344.5" x="697.5">Optimizer</text></g></g><g id="minder_node63"><g id="node_expander62" style="cursor: pointer;" display="none"><path id="kity_path_524" fill="white" stroke="gray" d="M802.5,1350.5A6,6,0,1,1,790.5,1350.5A6,6,0,1,1,802.5,1350.5"></path><path id="kity_path_525" fill="none" stroke="gray"></path></g><path id="node_outline63" fill="none" stroke="none" d="M807.5,1339.5h75a5,5,0,0,1,5,5v12a5,5,0,0,1,-5,5h-75a5,5,0,0,1,-5,-5v-12a5,5,0,0,1,5,-5z" stroke-width="3"></path><g id="node_text63" fill="black"><text id="kity_text_521" text-rendering="inherit" font-size="12" dy=".8em" y="1344.5" x="812.5">参考 delete</text></g></g></g></g></svg>